<svg xmlns="http://www.w3.org/2000/svg" viewBox="0 0 24 19"><path fill="#FFF" d="M21.6,0 L2.4,0 C1.07511974,0.00143981298 0.00145496891,1.06392057 0,2.375 L0,16.625 C0.00145496891,17.9360794 1.07511974,18.9985602 2.4,19 L21.6,19 C22.9248803,18.9985602 23.998545,17.9360794 24,16.625 L24,2.375 C23.998545,1.06392057 22.9248803,0.00143981298 21.6,0 Z M22.4,16.2971708 L16.9656,10.9194583 C16.6516969,10.6194387 16.1527322,10.6237294 15.8441451,10.929102 C15.5355581,11.2344746 15.5312222,11.7282417 15.8344,12.038875 L21.26872,17.4166667 L2.73128,17.4166667 L8.1656,12.038875 C8.46877777,11.7282417 8.4644419,11.2344746 8.15585486,10.929102 C7.84726782,10.6237294 7.34830311,10.6194387 7.0344,10.9194583 L1.6,16.2971708 L1.6,4.70503333 L10.60472,11.0700333 C11.4428111,11.6489422 12.5568689,11.6489422 13.39496,11.0700333 L22.4,4.70503333 L22.4,16.2971708 Z M2.4,1.58333333 L21.6,1.58333333 C22.0415903,1.58390032 22.399427,1.93800964 22.4,2.375 L22.4,2.75919583 L12.46488,9.78183333 C12.1866153,9.97837624 11.8128938,9.97821719 11.5348,9.7814375 L1.6,2.75919583 L1.6,2.375 C1.60057295,1.93800964 1.95840974,1.58390032 2.4,1.58333333 Z"/></svg>