<svg xmlns="http://www.w3.org/2000/svg" fill="#1E2327" viewBox="0 0 18 20"><path d="M1219.4258,575.200375 L1227.5,579 L1227.5,583.326493 C1227.5,587.858741 1224.94651,592.004324 1220.89887,594.043407 L1219,595 L1217.10113,594.043407 C1213.05349,592.004324 1210.5,587.858741 1210.5,583.326493 L1210.5,579 L1218.5742,575.200375 C1218.84388,575.073467 1219.15612,575.073467 1219.4258,575.200375 Z M1219,576.657 L1212,579.951 L1212,583.326493 C1212,587.187849 1214.11826,590.728446 1217.49912,592.559133 L1217.77599,592.703793 L1219,593.32 L1220.22401,592.703793 C1223.67249,590.966548 1225.8815,587.481848 1225.99537,583.638846 L1226,583.326493 L1226,579.952 L1219,576.657 Z M1222.51828,582.457891 C1222.79046,582.718109 1222.82402,583.134124 1222.61282,583.432555 L1222.54211,583.518283 L1218.83229,587.397255 C1218.48223,587.731935 1217.9429,587.746167 1217.57683,587.448095 L1217.48913,587.367075 L1215.45789,585.24246 C1215.17165,584.943062 1215.18232,584.468308 1215.48172,584.182068 C1215.7539,583.92185 1216.171,583.907009 1216.45964,584.131404 L1216.54211,584.205894 L1218.176,585.914 L1221.45789,582.481717 C1221.74413,582.182318 1222.21888,582.171651 1222.51828,582.457891 Z" transform="translate(-1210 -575)"/></svg>