<svg xmlns="http://www.w3.org/2000/svg" viewBox="0 0 20 20" fill="#004878"><path d="M9.50056397,0.698920425 C9.12493198,1.18754515 9.15382675,1.89409583 9.58724828,2.34919349 L15.697,8.765 L1.45113965,8.76511592 C0.760219907,8.76511592 0.2157895,9.33677418 0.2157895,10.0230283 L0.222071773,10.1503842 C0.284408945,10.7792415 0.803349752,11.2809407 1.45113965,11.2809407 L15.653,11.28 L9.58729057,17.6504566 C9.12291036,18.1380612 9.12291036,18.9143237 9.58729057,19.4019283 C10.0728727,19.9117951 10.8735843,19.9109853 11.3595286,19.4034225 L19.386449,10.9759991 C19.6282213,10.7349325 19.8182054,10.379729 19.7800095,9.89021527 C19.753658,9.55331892 19.6275707,9.29921232 19.4566847,9.10050518 L11.360913,0.597721785 C10.875925,0.0884787383 10.0722363,0.0884787383 9.58724828,0.597721785 L9.50056397,0.698920425 Z"/></svg>