<svg xmlns="http://www.w3.org/2000/svg" fill="#1E2327" viewBox="0 0 22 22"><path d="M445.90625,422.90625 L434.09375,422.90625 L434.09375,411.09375 C434.09375,410.489672 433.604078,410 433,410 C432.395922,410 431.90625,410.489672 431.90625,411.09375 L431.90625,422.90625 L420.09375,422.90625 C419.489672,422.90625 419,423.395922 419,424 C419,424.604078 419.489672,425.09375 420.09375,425.09375 L431.90625,425.09375 L431.90625,436.90625 C431.90625,437.510328 432.395922,438 433,438 C433.604078,438 434.09375,437.510328 434.09375,436.90625 L434.09375,425.09375 L445.90625,425.09375 C446.510328,425.09375 447,424.604078 447,424 C447,423.395922 446.510328,422.90625 445.90625,422.90625 Z" transform="rotate(45 720.535 -291.9)"/></svg>