<svg xmlns="http://www.w3.org/2000/svg" fill="#1E2327" viewBox="0 0 92 92"><path d="M194,700 C198.334914,700 201.864543,703.447838 201.996193,707.750821 L202,708 L202,734 C202,738.334914 198.552162,741.864543 194.249179,741.996193 L194,742 L169.150843,742.000271 C170.979595,745.953814 172,750.357743 172,755 C172,762.563267 169.291475,769.493923 164.791477,774.874917 L179.367882,788.540926 C180.173707,789.296386 180.214535,790.562058 179.459074,791.367882 C178.743375,792.131295 177.569758,792.208118 176.763033,791.571745 L176.632118,791.459074 L162.033404,777.772908 C156.507045,782.879647 149.117921,786 141,786 C123.879173,786 110,772.120827 110,755 C110,739.234371 121.768923,726.21752 137.000614,724.255604 L137,708 C137,703.665086 140.447838,700.135457 144.750821,700.003807 L145,700 L194,700 Z M141,728 C126.088312,728 114,740.088312 114,755 C114,769.911688 126.088312,782 141,782 C155.911688,782 168,769.911688 168,755 C168,740.088312 155.911688,728 141,728 Z M134.288722,745.470358 L134.415933,745.587196 L140.999,752.171 L147.582564,745.586568 C148.363556,744.805463 149.629886,744.805372 150.410991,745.586364 C151.150985,746.326251 151.190015,747.501733 150.528019,748.287568 L150.411195,748.414791 L143.827,754.999 L150.412082,761.584477 C151.193103,762.365554 151.193058,763.631884 150.411982,764.412904 C149.672015,765.152819 148.496529,765.191722 147.710765,764.529642 L147.583555,764.412804 L140.999,757.827 L134.414863,764.413432 C133.633871,765.194537 132.367541,765.194628 131.586436,764.413636 C130.846442,763.673749 130.807413,762.498267 131.469408,761.712432 L131.586232,761.585209 L138.171,754.999 L131.587406,748.415523 C130.806385,747.634446 130.806429,746.368116 131.587506,745.587096 C132.327473,744.847181 133.502958,744.808278 134.288722,745.470358 Z M194,704 L145,704 C142.857805,704 141.108921,705.683968 141.004895,707.80036 L141,708 L141,724 C151.843476,724 161.38662,729.567383 166.926895,737.999613 L194,738 C196.142195,738 197.891079,736.316032 197.995105,734.19964 L198,734 L198,708 C198,705.857805 196.316032,704.108921 194.19964,704.004895 L194,704 Z M186,724 C187.104569,724 188,724.895431 188,726 C188,727.054362 187.184122,727.918165 186.149262,727.994514 L186,728 L170,728 C168.895431,728 168,727.104569 168,726 C168,724.945638 168.815878,724.081835 169.850738,724.005486 L170,724 L186,724 Z M186,714 C187.104569,714 188,714.895431 188,716 C188,717.054362 187.184122,717.918165 186.149262,717.994514 L186,718 L153,718 C151.895431,718 151,717.104569 151,716 C151,714.945638 151.815878,714.081835 152.850738,714.005486 L153,714 L186,714 Z" transform="translate(-110 -700)"/></svg>