<svg xmlns="http://www.w3.org/2000/svg" fill="#1E2327" viewBox="0 0 20 20"><path d="M1280,575 C1285.52285,575 1290,579.477153 1290,585 C1290,590.522847 1285.52285,595 1280,595 C1274.47715,595 1270,590.522847 1270,585 C1270,579.477153 1274.47715,575 1280,575 Z M1280,576.5 C1275.30558,576.5 1271.5,580.30558 1271.5,585 C1271.5,589.69442 1275.30558,593.5 1280,593.5 C1284.69442,593.5 1288.5,589.69442 1288.5,585 C1288.5,580.30558 1284.69442,576.5 1280,576.5 Z M1280,583.25 C1280.3797,583.25 1280.69349,583.532154 1280.74315,583.898229 L1280.75,584 L1280.75,589 C1280.75,589.414214 1280.41421,589.75 1280,589.75 C1279.6203,589.75 1279.30651,589.467846 1279.25685,589.101771 L1279.25,589 L1279.25,584 C1279.25,583.585786 1279.58579,583.25 1280,583.25 Z M1280,580 C1280.55228,580 1281,580.447715 1281,581 C1281,581.552285 1280.55228,582 1280,582 C1279.44772,582 1279,581.552285 1279,581 C1279,580.447715 1279.44772,580 1280,580 Z" transform="translate(-1270 -575)"/></svg>