<svg xmlns="http://www.w3.org/2000/svg" viewBox="0 0 24 24"><g fill="#FFF"><path d="M12.0000575,8.84247692e-06 C7.694798,-0.00520891679 3.71749037,2.29907066 1.58060567,6.03659627 C-0.556279028,9.77412188 -0.524404965,14.3706166 1.66410695,18.0781479 L0.0411547192,22.9468598 C-0.0491954348,23.2174081 0.0115410415,23.5156032 0.200513956,23.7292585 C0.390693437,23.9408623 0.677670434,24.0376241 0.957150333,23.9843781 L6.81416229,22.81286 C8.43048126,23.5964922 10.2037956,24.0024266 12.0000575,23.9999891 C18.6274427,23.9999891 24,18.6274039 24,11.9999979 C24,5.37259184 18.6274427,8.84247692e-06 12.0000575,8.84247692e-06 L12.0000575,8.84247692e-06 Z M12.0000575,22.3999858 C10.3611591,22.4016042 8.74561232,22.011458 7.28808002,21.2620626 C7.12652265,21.1843256 6.94461819,21.1593347 6.76808251,21.1906227 L1.99506536,22.1452611 L3.29969912,18.2319876 C3.37553944,18.003909 3.34499943,17.7538326 3.21649952,17.5507087 C0.68708661,13.5394879 1.19374234,8.32474674 4.44800578,4.87546197 C7.70226922,1.4261772 12.8787224,0.617232423 17.0301875,2.90919473 C21.1816527,5.20115704 23.2551438,10.0126885 22.0701331,14.6043769 C20.8851224,19.1960654 16.7421783,22.4032658 12.0000575,22.3999858 L12.0000575,22.3999858 Z"/><path d="M13.6000498,16.79999 L12.8000536,16.79999 L12.8000536,9.60000186 C12.8000536,9.15817479 12.4418831,8.80000318 12.0000575,8.80000318 L10.4000651,8.80000318 C9.95823943,8.80000318 9.60006895,9.15817479 9.60006895,9.60000186 C9.60006895,10.0418289 9.95823943,10.4000005 10.4000651,10.4000005 L11.2000613,10.4000005 L11.2000613,17.5999886 C11.2000613,18.0418157 11.5582318,18.3999873 12.0000575,18.3999873 L13.6000498,18.3999873 C14.0418755,18.3999873 14.400046,18.0418157 14.400046,17.5999886 C14.400046,17.1581616 14.0418755,16.79999 13.6000498,16.79999 Z"/><circle cx="12" cy="6.4" r="1"/></g></svg>