<svg xmlns="http://www.w3.org/2000/svg" fill="#1E2327"  viewBox="0 0 20 14"><path d="M1149,141 C1149.51284,141 1149.93551,141.38604 1149.99327,141.883379 L1150,142 L1149.99927,147.83 L1151.81749,146.27246 C1152.20456,145.940686 1152.77225,145.956543 1153.13999,146.290757 L1153.22754,146.380925 C1153.55931,146.767995 1153.54346,147.335683 1153.20924,147.703424 L1153.11907,147.790973 L1149.74923,150.679409 L1149.67681,150.736163 C1149.49873,150.899976 1149.26104,151 1149,151 C1148.83604,151 1148.6813,150.960541 1148.54475,150.890601 C1148.45734,150.858257 1148.37354,150.81507 1148.29464,150.761461 L1148.18733,150.679409 L1144.81749,147.790973 C1144.39817,147.431551 1144.3496,146.800251 1144.70903,146.380925 C1145.0408,145.993855 1145.60423,145.922703 1146.01876,146.196742 L1146.11907,146.27246 L1147.99927,147.884 L1148,142 C1148,141.447715 1148.44772,141 1149,141 Z M1159,137 C1159.26104,137 1159.49873,137.100024 1159.67681,137.263837 L1159.74923,137.320591 L1163.11907,140.209027 C1163.5384,140.568449 1163.58696,141.199749 1163.22754,141.619075 C1162.89577,142.006145 1162.33233,142.077297 1161.9178,141.803258 L1161.81749,141.72754 L1159.99927,140.169 L1160,146 C1160,146.552285 1159.55228,147 1159,147 C1158.48716,147 1158.06449,146.61396 1158.00673,146.116621 L1158,146 L1157.99927,140.115 L1156.11907,141.72754 C1155.732,142.059314 1155.16432,142.043457 1154.79658,141.709243 L1154.70903,141.619075 C1154.37725,141.232005 1154.39311,140.664317 1154.72732,140.296576 L1154.81749,140.209027 L1158.18733,137.320591 C1158.29582,137.227606 1158.41675,137.157067 1158.54413,137.108976 C1158.6813,137.039459 1158.83604,137 1159,137 Z" transform="translate(-1144 -137)"/></svg>