<svg xmlns="http://www.w3.org/2000/svg" fill="#1E2327" viewBox="0 0 20 20"><path d="M969,539 C969.512836,539 969.935507,539.38604 969.993272,539.883379 L970,540 L970,548 L978,548 C978.552285,548 979,548.447715 979,549 C979,549.512836 978.61396,549.935507 978.116621,549.993272 L978,550 L970,550 L970,558 C970,558.552285 969.552285,559 969,559 C968.487164,559 968.064493,558.61396 968.006728,558.116621 L968,558 L968,550 L960,550 C959.447715,550 959,549.552285 959,549 C959,548.487164 959.38604,548.064493 959.883379,548.006728 L960,548 L968,548 L968,540 C968,539.447715 968.447715,539 969,539 Z" transform="translate(-959 -539)"/></svg>