<svg xmlns="http://www.w3.org/2000/svg" fill="#1E2327" viewBox="0 0 92 92"><path d="M277,702 C302.405098,702 323,722.594902 323,748 C323,773.405098 302.405098,794 277,794 C251.594902,794 231,773.405098 231,748 C231,722.594902 251.594902,702 277,702 Z M277,706 C253.804041,706 235,724.804041 235,748 C235,771.195959 253.804041,790 277,790 C300.195959,790 319,771.195959 319,748 C319,724.804041 300.195959,706 277,706 Z M290.813046,739.157322 C291.552987,739.897262 291.591931,741.072747 290.929879,741.858534 L290.813046,741.985749 L274.425953,758.372842 C273.607711,759.191084 272.305289,759.230048 271.440935,758.489734 L271.314683,758.372842 L263.156054,750.214214 C262.375005,749.433165 262.375005,748.166835 263.156054,747.385786 C263.895995,746.645846 265.071479,746.606901 265.857266,747.268954 L265.984481,747.385786 L272.87,754.271 L287.984619,739.157322 C288.765668,738.376273 290.031998,738.376273 290.813046,739.157322 Z" transform="translate(-231 -702)"/></svg>