<svg xmlns="http://www.w3.org/2000/svg" viewBox="0 0 18 21"><path fill="#1E2327" d="M13.4400763,10 C14.4406097,8.90780354 14.9969854,7.48119909 15.0000763,6 C15.0000763,2.6862915 12.3137847,0 9.00007625,0 C5.68636775,0 3.00007625,2.6862915 3.00007625,6 C3.00316707,7.48119909 3.5595428,8.90780354 4.56007625,10 C1.97179753,10.2286359 -0.0100024159,12.4016622 3.79806592e-05,15 L3.79806592e-05,20 C3.79806592e-05,20.5522847 0.447791501,21 1.00007625,21 C1.552361,21 2.00007625,20.5522847 2.00007625,20 L2.00007625,15 C2.00007625,13.3431458 3.343222,12 5.00007625,12 L13.0000763,12 C14.6569305,12 16.0000763,13.3431458 16.0000763,15 L16.0000763,20 C16.0000763,20.5522847 16.4477915,21 17.0000763,21 C17.552361,21 18.0001145,20.5522847 18.0001145,20 L18.0001145,15 C18.0101549,12.4016622 16.028355,10.2286359 13.4400763,10 Z M5.00007625,6 C5.00007625,3.790861 6.79093725,2 9.00007625,2 C11.2092153,2 13.0000763,3.790861 13.0000763,6 C13.0000763,8.209139 11.2092153,10 9.00007625,10 C6.79093725,10 5.00007625,8.209139 5.00007625,6 L5.00007625,6 Z"/></svg>