<svg xmlns="http://www.w3.org/2000/svg" viewBox="0 0 24 24"><g fill="#FFF"><path d="M21.6,7.20046223 L16,7.20046223 L16,2.40015408 C15.998545,1.07518876 14.9248803,0.00145506232 13.6,0 L2.4,0 C1.07511974,0.00145506232 0.00145496891,1.07518876 0,2.40015408 L0,10.4006677 C0.00145496891,11.725633 1.07511974,12.7993667 2.4,12.8008217 L2.4,16.0010272 C2.40001011,16.3245719 2.59487846,16.6162617 2.89376,16.7401146 C3.19325684,16.8586616 3.53441834,16.7908006 3.76576,16.5666635 L7.53128,12.8008217 L8,12.8008217 L8,17.6011299 C8.00145497,18.9260952 9.07511974,19.9998289 10.4,20.001284 L16.46872,20.001284 L20.2344,23.7671257 C20.4643652,23.9938741 20.8071757,24.0620632 21.1064,23.9405768 C21.4052188,23.8166741 21.6000167,23.5249952 21.6,23.2014894 L21.6,20.001284 C22.9248803,19.9998289 23.998545,18.9260952 24,17.6011299 L24,9.6006163 C23.998545,8.27565099 22.9248803,7.20191729 21.6,7.20046223 L21.6,7.20046223 Z M7.2,11.200719 C6.98784415,11.2007643 6.78439419,11.2850849 6.6344,11.4351341 L4,14.0696232 L4,12.0007704 C4,11.5589142 3.6418278,11.200719 3.2,11.200719 L2.4,11.200719 C1.95833673,11.200322 1.60039696,10.8423593 1.6,10.4006677 L1.6,2.40015408 C1.60039696,1.95846245 1.95833673,1.6004997 2.4,1.60010272 L13.6,1.60010272 C14.0416633,1.6004997 14.399603,1.95846245 14.4,2.40015408 L14.4,7.20046223 L10.4,7.20046223 C9.07511974,7.20191729 8.00145497,8.27565099 8,9.6006163 L8,11.200719 L7.2,11.200719 Z M22.4,17.6011299 C22.399603,18.0428215 22.0416633,18.4007843 21.6,18.4011812 L20.8,18.4011812 C20.3581722,18.4011812 20,18.7593764 20,19.2012326 L20,21.2700854 L17.3656,18.6355963 C17.2156058,18.4855472 17.0121559,18.4012266 16.8,18.4011812 L10.4,18.4011812 C9.95833673,18.4007843 9.60039696,18.0428215 9.6,17.6011299 L9.6,9.6006163 C9.60039696,9.15892468 9.95833673,8.80096193 10.4,8.80056495 L21.6,8.80056495 C22.0416633,8.80096193 22.399603,9.15892468 22.4,9.6006163 L22.4,17.6011299 Z"/><circle cx="20" cy="13.601" r="1"/><circle cx="16" cy="13.601" r="1"/><circle cx="12" cy="13.601" r="1"/></g></svg>