<svg xmlns="http://www.w3.org/2000/svg" fill="#1E2327" viewBox="0 0 16 22"><path d="M1113,574.103553 C1117.28021,574.103553 1120.75,577.573347 1120.75,581.853553 C1120.75,582.864337 1120.55602,583.849409 1120.18348,584.767109 C1120.13352,584.890184 1120.07001,585.028394 1119.99221,585.183324 L1119.99221,585.183324 L1119.81733,585.515947 L1119.60301,585.895972 L1119.48064,586.10464 L1113.80417,595.130114 C1113.72833,595.250692 1113.62635,595.352674 1113.50577,595.42851 C1113.06164,595.707842 1112.47516,595.574245 1112.19583,595.130114 L1112.19583,595.130114 L1106.50895,586.087593 L1106.28043,585.692666 L1106.08909,585.341755 C1105.97384,585.122216 1105.88314,584.931208 1105.81652,584.767109 C1105.44398,583.849409 1105.25,582.864337 1105.25,581.853553 C1105.25,577.573347 1108.71979,574.103553 1113,574.103553 Z M1113,575.603553 C1109.54822,575.603553 1106.75,578.401774 1106.75,581.853553 C1106.75,582.670095 1106.90626,583.463651 1107.20636,584.202896 C1107.24363,584.294698 1107.2949,584.405193 1107.35943,584.532797 L1107.35943,584.532797 L1107.50594,584.810345 C1107.53324,584.860248 1107.56194,584.911935 1107.59204,584.965347 L1107.59204,584.965347 L1107.7891,585.306048 L1113,593.591 L1118.20049,585.323095 C1118.23734,585.260887 1118.27269,585.200553 1118.30654,585.142119 L1118.30654,585.142119 L1118.49151,584.814507 L1118.64002,584.533696 C1118.68341,584.448027 1118.72065,584.370363 1118.75171,584.300904 L1118.75171,584.300904 L1118.79364,584.202896 C1119.09374,583.463651 1119.25,582.670095 1119.25,581.853553 C1119.25,578.401774 1116.45178,575.603553 1113,575.603553 Z M1113,578 C1115.20914,578 1117,579.790861 1117,582 C1117,584.209139 1115.20914,586 1113,586 C1110.79086,586 1109,584.209139 1109,582 C1109,579.790861 1110.79086,578 1113,578 Z M1113,579.5 C1111.61929,579.5 1110.5,580.619288 1110.5,582 C1110.5,583.380712 1111.61929,584.5 1113,584.5 C1114.38071,584.5 1115.5,583.380712 1115.5,582 C1115.5,580.619288 1114.38071,579.5 1113,579.5 Z" transform="translate(-1105 -574)"/></svg>