<svg xmlns="http://www.w3.org/2000/svg" viewBox="0 0 24 24"><path fill="#FFF" d="M2.83580772,13.0123721 C5.7894144,16.7553128 9.26628678,20.052716 13.1592727,22.8029604 C15.6364128,24.510963 18.9416998,24.3800476 21.2763056,22.4814619 L23.0645857,20.9657916 C23.6697537,20.4261148 24.0109831,19.6499375 23.9997302,18.8386658 C23.9884773,18.0273942 23.6258514,17.2610014 23.0059484,16.7383547 L19.4852217,13.9182457 C17.9952552,12.7651334 16.1866282,13.3776567 15.2097389,14.8635749 C15.0084899,15.0970548 14.7225264,15.2405281 14.4152389,15.2621907 C14.1079514,15.2838533 13.8047256,15.1819156 13.5727784,14.9789743 C11.9633332,13.5733694 10.4513399,12.0597063 9.04728565,10.4484836 C8.84535882,10.2159374 8.74405623,9.9125693 8.76569257,9.60520452 C8.78732891,9.29783974 8.93012927,9.01169277 9.16263789,8.80979542 L9.72121511,8.3446691 C10.8592261,7.38679099 11.0300834,5.69661929 10.1068441,4.52991152 L7.28984617,1.00521635 C6.77128876,0.378867807 6.00453212,0.0115636805 5.19199174,0.000268291391 C4.37945136,-0.0110270977 3.60280282,0.33482165 3.06707294,0.946514196 L1.55339518,2.73717034 C-1.26832894,6.16563248 0.113094266,10.0159963 2.83580772,13.0123721 L2.83580772,13.0123721 Z M2.7768499,3.77287834 L4.28980671,1.98262317 C4.51153184,1.7289487 4.83327904,1.58545071 5.16995318,1.5899726 C5.50662732,1.59471191 5.8243152,1.74700466 6.0389953,2.00668143 L8.85599318,5.53201816 C9.23836236,6.01516121 9.16766386,6.71511036 8.69642258,7.11184377 L8.13784537,7.57697009 C6.9888245,8.58665705 6.85627532,10.3304371 7.83945155,11.502556 C9.29174287,13.1687252 10.8554576,14.7341669 12.5197887,16.1880622 C13.0787308,16.6703929 13.806541,16.9100129 14.5423473,16.8539576 C15.2781536,16.7979023 15.9613637,16.4507878 16.4409639,15.8893388 L16.9055771,15.3301447 C17.3022408,14.8586327 18.001327,14.7878905 18.4842206,15.1703979 L22.0052677,17.9905068 C22.2658322,18.2047 22.4188338,18.522988 22.4235736,18.8604804 C22.428097,19.1979729 22.2838877,19.5203487 22.0292994,19.7416272 L20.2414197,21.256255 C18.4813454,22.7290739 15.9497406,22.8259537 14.0824911,21.4919457 C9.6049255,18.3279824 5.70139824,14.4200627 2.54101865,9.93748616 C1.20960498,8.06818938 1.3065232,5.53475577 2.7768499,3.77287834 L2.7768499,3.77287834 Z"/></svg>