<svg xmlns="http://www.w3.org/2000/svg" viewBox="0 0 17 17"><g fill="#5F6E7B" transform="translate(.015 .556)"><path d="M10.754266,4.10977583 C11.4307185,4.11152721 12.0200189,4.55383227 12.2293337,5.19248419 L12.268264,5.33225449 L12.4779752,6.25477583 L12.740984,6.12031249 C13.0392327,5.96766717 13.4047546,6.08570209 13.5573999,6.38395084 C13.6947807,6.65237472 13.6129105,6.97528982 13.3777393,7.14846703 L13.2937615,7.20036677 L13.1816501,7.25726381 C13.4283486,7.55422353 13.5872536,7.92863311 13.6183963,8.33862333 L13.6240193,8.48723173 L13.6240193,10.161341 C13.6240193,10.8090483 13.1384452,11.3469016 12.5101209,11.4116032 L12.3826543,11.4181272 L11.4305765,11.4181272 C10.8277981,11.4181272 10.3294618,10.9848612 10.2142961,10.4137039 L10.2023174,10.3378531 L8.21431738,10.3378531 L8.20382747,10.4137039 C8.09688791,10.9440643 7.6595614,11.3555285 7.11501367,11.4116032 L6.98754705,11.4181272 L6.03546931,11.4181272 C5.38963532,11.4181272 4.86369654,10.9207556 4.80047698,10.2893101 L4.79410423,10.161341 L4.79410423,8.48723173 C4.79410423,8.01906185 4.96045044,7.58925994 5.23694759,7.25669328 L5.12509285,7.20074019 C4.82663786,7.04849849 4.70810857,6.68313665 4.86035026,6.38468166 C4.99736778,6.11607217 5.30701263,5.9932025 5.58514511,6.08229885 L5.67640879,6.11993907 L5.93897521,6.25377583 L6.1501597,5.33094712 C6.21584123,5.04627485 6.3552059,4.7942532 6.54528388,4.59418916 L6.64428319,4.49857653 C6.87994914,4.2903384 7.17669963,4.15416634 7.50009748,4.11888029 L7.66542641,4.10977583 L10.754266,4.10977583 Z M11.7479358,7.79359924 L6.67018781,7.79359924 C6.62598466,7.79359924 6.58271259,7.79816287 6.54080106,7.8068769 C6.51842679,7.81666505 6.49432154,7.82264079 6.46993005,7.82714755 C6.23314302,7.90472269 6.05235733,8.11874349 6.01465819,8.38400692 L6.0073974,8.48723173 L6.0073974,10.161341 C6.0073974,10.1794987 6.0144511,10.1927764 6.0227687,10.1996106 L6.03546931,10.204834 L6.98754705,10.204834 C6.99568112,10.204834 7.00544617,10.1976089 7.01105242,10.1847221 L7.01561896,10.161341 L7.01561896,9.73159881 C7.01561896,9.43006131 7.23561896,9.17990757 7.52386432,9.1328922 L7.62226555,9.12495222 L10.795858,9.12495222 C11.0973955,9.12495222 11.3475493,9.34495221 11.3945646,9.63319758 L11.4025046,9.73159881 L11.4025046,10.161341 C11.4025046,10.1794987 11.4095583,10.1927764 11.4178759,10.1996106 L11.4305765,10.204834 L12.3826543,10.204834 C12.3907883,10.204834 12.4005534,10.1976089 12.4061596,10.1847221 L12.4107262,10.161341 L12.4107262,8.48723173 C12.4107262,8.1360511 12.162756,7.85013071 11.8451337,7.80104751 L11.7479358,7.79359924 Z M10.7526972,5.323069 L7.66699523,5.32306697 C7.53297503,5.32341356 7.41112485,5.40691477 7.35501912,5.53489502 L7.33269298,5.60241267 L7.10897521,6.57977583 L11.3079752,6.57977583 L11.0857307,5.60372007 C11.0527707,5.46086718 10.9453577,5.35700792 10.8178651,5.32999585 L10.7526972,5.323069 Z"/><path d="M15.5555309,3.39360956 C17.5379295,6.29355355 17.4055694,10.1846992 15.230489,12.9368421 C13.0500995,15.6957025 9.34369281,16.6432155 6.14875691,15.2553091 C5.84145819,15.121816 5.70056088,14.7644836 5.83405397,14.4571849 C5.96754706,14.1498862 6.32487943,14.0089889 6.63217815,14.142482 C9.32035608,15.3102485 12.4381934,14.5131986 14.2785892,12.1845342 C16.1242941,9.84915222 16.2368502,6.54020795 14.5539059,4.07831936 C12.875593,1.6232059 9.81873577,0.605569503 7.05790523,1.57879939 C4.29190129,2.553853 2.487129,5.293154 2.63980235,8.2951518 L2.638,8.315 L3.31032327,7.62809228 C3.47415823,7.46027681 3.72988643,7.43647639 3.91974227,7.55858454 L3.99661611,7.6198553 C4.16443158,7.78369026 4.188232,8.03941845 4.06612385,8.2292743 L4.00485309,8.30614814 L2.41871774,9.93082003 C2.24945028,10.1042 1.98279842,10.1234644 1.79188998,9.98861335 L1.72418793,9.93082003 L0.13805258,8.30614814 C-0.0491873733,8.11435902 -0.0454995513,7.80709526 0.146289561,7.6198553 C0.314105034,7.45602034 0.570330791,7.43836446 0.757201254,7.56499414 L0.832582395,7.62809228 L1.424,8.234 L1.41878262,8.08550077 C1.3582793,4.65764485 3.46204625,1.55991636 6.65453211,0.434522131 C9.93620421,-0.722311405 13.5685009,0.486890428 15.5555309,3.39360956 Z"/></g></svg>