<svg xmlns="http://www.w3.org/2000/svg" viewBox="0 0 18 18" fill="#5F6E7B"><g transform="translate(.368 .368)"><path d="M6.66522144,0.291460935 C7.31087894,-0.067259949 8.08524839,-0.0948538632 8.75070527,0.208677829 L8.91466296,0.291459201 L14.3879292,3.33231104 C15.0740872,3.71353358 15.5170115,4.41398354 15.5730185,5.18946028 L15.5790454,5.35669324 L15.5790454,6.51269628 C15.5790454,6.86153478 15.2962559,7.14432425 14.9474174,7.14432425 C14.6302915,7.14432425 14.3677516,6.91061394 14.3226379,6.60603363 L14.3157895,6.51269628 L14.3157895,5.35669324 C14.3157895,5.01691023 14.1520481,4.70086704 13.8809823,4.50444482 L13.7744119,4.43658098 L8.30114565,1.39572914 C8.02296968,1.24117733 7.69222774,1.22185836 7.40090838,1.33777326 L7.27873904,1.39573071 L1.80463661,4.43705083 C1.50761836,4.60207122 1.31087499,4.89869635 1.27082114,5.23104627 L1.26325594,5.35716482 L1.26262797,14.3156282 L4.20962797,14.3156282 L4.21052632,9.05266086 C4.21052632,8.73553496 4.44423663,8.47299502 4.74881694,8.42788136 L4.84215429,8.42103289 L7.36847008,8.42103289 C7.71730857,8.42103289 8.00009805,8.70382237 8.00009805,9.05266086 C8.00009805,9.36978677 7.76638774,9.63232671 7.46180743,9.67744037 L7.36847008,9.68428884 L5.47362797,9.68362819 L5.47378226,14.9474132 C5.47378226,15.2645391 5.24007195,15.5270791 4.93549164,15.5721927 L4.84215429,15.5790412 L0.631627972,15.5790412 C0.314502066,15.5790412 0.051962128,15.3453309 0.006848469,15.0407506 L0,14.9474132 L0,5.35716482 C0,4.57221592 0.397180425,3.84485086 1.04785996,3.41926903 L1.19111901,3.33278105 L6.66522144,0.291460935 Z"/><path d="M13.9581627,9.26314037 C14.7865706,9.26314037 15.5123137,9.80005373 15.7619865,10.5777426 L15.80313,10.7263086 L16.0088099,11.6051404 L16.3480858,11.4356279 C16.6598004,11.2790318 17.0394411,11.4047803 17.1960372,11.7164949 C17.3369736,11.997038 17.249211,12.3326013 17.0030092,12.511067 L16.9151702,12.5644462 L16.5579186,12.7434106 C16.9906997,13.1290044 17.2632559,13.6905891 17.2632559,14.3158326 L17.2632559,14.3158326 L17.2632559,15.7895207 C17.2632559,16.6034419 16.6034434,17.2632562 15.7895227,17.2632562 L15.7895227,17.2632562 L14.9474174,17.2632562 C14.2292521,17.2632562 13.6310672,16.7495599 13.5002578,16.0695647 L13.5002578,16.0695647 L13.49,16 L11.351,16 L11.3419455,16.0695647 C11.2198567,16.7042269 10.690632,17.1940242 10.0367163,17.2565098 L10.0367163,17.2565098 L9.89478587,17.2632562 L9.0526806,17.2632562 C8.23875988,17.2632562 7.57894737,16.6034419 7.57894737,15.7895207 L7.57894737,15.7895207 L7.57894737,14.3158326 C7.57894737,13.6905891 7.85150366,13.1290044 8.28428476,12.7434106 L7.92703315,12.5644462 C7.61531857,12.4078502 7.48957013,12.0282094 7.64616616,11.7164949 C7.78710259,11.4359517 8.10870525,11.3060412 8.39885635,11.397023 L8.49411753,11.4356279 L8.83280994,11.6061404 L9.03907309,10.7263096 C9.22777867,9.91967959 9.91589223,9.33531741 10.7300084,9.26936003 L10.8840406,9.26314037 L13.9581627,9.26314037 Z M15.1579438,13.4737725 L9.68425955,13.4737725 C9.59242882,13.4737725 9.50403138,13.4884724 9.42129195,13.5156474 C9.40155378,13.5277468 9.37989129,13.5358499 9.35778708,13.5427558 C9.05426683,13.6677773 8.84220331,13.9670396 8.84220331,14.3158326 L8.84220331,14.3158326 L8.84220331,15.7895207 C8.84220331,15.9057657 8.93643762,16.0000002 9.0526806,16.0000002 L9.0526806,16.0000002 L9.89478587,16.0000002 C10.0110289,16.0000002 10.1052632,15.9057657 10.1052632,15.7895207 L10.1052632,15.7895207 L10.1052632,15.368467 C10.1052632,15.0196285 10.3880526,14.736839 10.7368911,14.736839 L10.7368911,14.736839 L14.1053122,14.736839 C14.4541507,14.736839 14.7369402,15.0196285 14.7369402,15.368467 L14.7369402,15.368467 L14.7369402,15.7895207 C14.7369402,15.9057657 14.8311745,16.0000002 14.9474174,16.0000002 L14.9474174,16.0000002 L15.7895227,16.0000002 C15.9057657,16.0000002 16,15.9057657 16,15.7895207 L16,15.7895207 L16,14.3158326 C16,13.9683173 15.7894872,13.6699704 15.4890274,13.5413573 C15.4616854,13.535813 15.4360029,13.5260756 15.4110931,13.514744 C15.3317773,13.4874289 15.2464553,13.4737725 15.1579438,13.4737725 L15.1579438,13.4737725 Z M13.9581627,10.5263963 L10.8840406,10.5263963 C10.6232749,10.5263963 10.3930288,10.6860175 10.2981478,10.922113 L10.2691174,11.0140711 L9.98880994,12.2101404 L14.8528099,12.2101404 L14.5730857,11.0140701 C14.5136843,10.7601561 14.3058121,10.5723223 14.0543145,10.5337162 L13.9581627,10.5263963 Z"/></g></svg>