<svg xmlns="http://www.w3.org/2000/svg" fill="#1E2327" viewBox="0 0 18 20"><path  d="M1100.5,253 C1101.88071,253 1103,254.119288 1103,255.5 L1103,256.5 L1105,256.5 C1106.10457,256.5 1107,257.395431 1107,258.5 L1107,259.5 C1107,260.604569 1106.10457,261.5 1105,261.5 L1105,270 C1105,271.656854 1103.65685,273 1102,273 L1094,273 C1092.34315,273 1091,271.656854 1091,270 L1091,261.5 C1089.89543,261.5 1089,260.604569 1089,259.5 L1089,258.5 C1089,257.395431 1089.89543,256.5 1091,256.5 L1093,256.5 L1093,255.5 C1093,254.119288 1094.11929,253 1095.5,253 L1100.5,253 Z M1103.5,261.5 L1092.5,261.5 L1092.5,270 C1092.5,270.779696 1093.09489,271.420449 1093.85554,271.493133 L1094,271.5 L1102,271.5 C1102.7797,271.5 1103.42045,270.905112 1103.49313,270.14446 L1103.5,270 L1103.5,261.5 Z M1095,263.25 C1095.3797,263.25 1095.69349,263.532154 1095.74315,263.898229 L1095.75,264 L1095.75,269 C1095.75,269.414214 1095.41421,269.75 1095,269.75 C1094.6203,269.75 1094.30651,269.467846 1094.25685,269.101771 L1094.25,269 L1094.25,264 C1094.25,263.585786 1094.58579,263.25 1095,263.25 Z M1098,263.25 C1098.3797,263.25 1098.69349,263.532154 1098.74315,263.898229 L1098.75,264 L1098.75,269 C1098.75,269.414214 1098.41421,269.75 1098,269.75 C1097.6203,269.75 1097.30651,269.467846 1097.25685,269.101771 L1097.25,269 L1097.25,264 C1097.25,263.585786 1097.58579,263.25 1098,263.25 Z M1101,263.25 C1101.3797,263.25 1101.69349,263.532154 1101.74315,263.898229 L1101.75,264 L1101.75,269 C1101.75,269.414214 1101.41421,269.75 1101,269.75 C1100.6203,269.75 1100.30651,269.467846 1100.25685,269.101771 L1100.25,269 L1100.25,264 C1100.25,263.585786 1100.58579,263.25 1101,263.25 Z M1105,258 L1091,258 C1090.75454,258 1090.55039,258.176875 1090.50806,258.410124 L1090.5,258.5 L1090.5,259.5 C1090.5,259.74546 1090.67688,259.949608 1090.91012,259.991944 L1091,260 L1105,260 C1105.24546,260 1105.44961,259.823125 1105.49194,259.589876 L1105.5,259.5 L1105.5,258.5 C1105.5,258.25454 1105.32312,258.050392 1105.08988,258.008056 L1105,258 Z M1100.5,254.5 L1095.5,254.5 C1094.98716,254.5 1094.56449,254.88604 1094.50673,255.383379 L1094.5,255.5 L1094.5,256.5 L1101.5,256.5 L1101.5,255.5 C1101.5,254.987164 1101.11396,254.564493 1100.61662,254.506728 L1100.5,254.5 Z" transform="translate(-1089 -253)"/></svg>