<svg xmlns="http://www.w3.org/2000/svg" viewBox="0 0 23 23" fill="#1E2327"><path d="M14.8734365,-0.5 C15.7572109,-0.5 16.6083034,-0.331025193 17.3979804,0.00171996543 C17.6863399,0.122340299 17.8949246,0.37961053 17.9547321,0.686124232 C18.0072975,0.953877834 17.9397339,1.22975316 17.774521,1.44203823 L17.6978025,1.52891519 L15.229,3.998 L15.584,5.415 L17,5.77 L19.4686461,3.30286709 C19.6352752,3.13481466 19.8561862,3.03731162 20.0834126,3.02592188 L20.1973299,3.02747518 L20.3109674,3.04381302 C20.6178476,3.10217642 20.8751595,3.3113054 20.9978554,3.60011828 C21.3312026,4.39216987 21.5,5.2423602 21.5,6.12653163 C21.5,9.78043502 18.5276494,12.7530633 14.8734365,12.7530633 C14.2085887,12.7530633 13.5626669,12.6582063 12.9464613,12.4705125 L4.83101252,20.5930533 C4.34091186,21.0781334 3.71444776,21.3801219 3.0484998,21.4709623 L2.82518768,21.4933837 L2.62030963,21.5 C1.79744232,21.5 1.00474048,21.182098 0.40772169,20.5911683 C-0.755161941,19.4162817 -0.80078087,17.5417956 0.27288105,16.3136988 L0.407093157,16.169516 L8.53,8.054 L8.44379901,7.74528376 C8.36519219,7.43240294 8.31002022,7.11220526 8.27845974,6.78612189 L8.25477629,6.45812964 L8.24687309,6.12653163 C8.24687309,2.47262825 11.2192236,-0.5 14.8734365,-0.5 Z M14.8737469,1.375 C12.25382,1.375 10.1224938,3.50626551 10.1224938,6.12610356 C10.1224938,6.76569003 10.2422102,7.37199763 10.4781671,7.93306972 C10.6093378,8.24521394 10.5611357,8.59963006 10.3596318,8.86502191 L10.2769328,8.9601144 L1.73689343,17.4911494 C1.25388364,17.9791506 1.25427306,18.7785947 1.73499661,19.2643109 C2.18949567,19.7141296 2.9168544,19.7432688 3.40766545,19.3528711 L3.50903297,19.2627933 L12.0416071,10.7225854 C12.3118014,10.4523989 12.7169464,10.3727527 13.0698397,10.5221213 C13.6256341,10.7576207 14.2321254,10.8772071 14.8737469,10.8772071 C17.4936738,10.8772071 19.625,8.74594162 19.625,6.12610356 C19.625,6.04149669 19.6228547,5.95735627 19.6185748,5.8737373 L19.613,5.81 L17.9532375,7.47069785 C17.749393,7.67618038 17.4636259,7.77407728 17.1813786,7.74121471 L17.0608801,7.71905751 L14.583805,7.09761813 C14.2860762,7.02277225 14.0466921,6.80774784 13.9376689,6.52552799 L13.9030365,6.41668831 L13.2817046,3.94018173 C13.2112962,3.66019355 13.2740084,3.36562094 13.4469245,3.14021919 L13.5277117,3.04809757 L15.189,1.386 L15.1274124,1.38138975 L14.8737469,1.375 Z" transform="translate(1 1)"/></svg>