<svg xmlns="http://www.w3.org/2000/svg" fill="#1E2327" viewBox="0 0 20 19"><path  d="M1080.5,540.5 C1082.08557,540.5 1083.42489,541.554335 1083.85511,543.000163 L1086,543 C1086.55228,543 1087,543.447715 1087,544 C1087,544.512836 1086.61396,544.935507 1086.11662,544.993272 L1086,545 L1083.85481,545.000839 C1083.42427,546.446152 1082.0852,547.5 1080.5,547.5 C1078.9148,547.5 1077.57573,546.446152 1077.14519,545.000839 L1068,545 C1067.44772,545 1067,544.552285 1067,544 C1067,543.487164 1067.38604,543.064493 1067.88338,543.006728 L1068,543 L1077.14489,543.000163 C1077.57511,541.554335 1078.91443,540.5 1080.5,540.5 Z M1080.5,542.5 C1079.67157,542.5 1079,543.171573 1079,544 C1079,544.828427 1079.67157,545.5 1080.5,545.5 C1081.32843,545.5 1082,544.828427 1082,544 C1082,543.171573 1081.32843,542.5 1080.5,542.5 Z M1073.5,551.5 C1075.08557,551.5 1076.42489,552.554335 1076.85511,554.000163 L1086,554 L1086.11662,554.006728 C1086.61396,554.064493 1087,554.487164 1087,555 C1087,555.552285 1086.55228,556 1086,556 L1086,556 L1076.85481,556.000839 C1076.42427,557.446152 1075.0852,558.5 1073.5,558.5 C1071.9148,558.5 1070.57573,557.446152 1070.14519,556.000839 L1068,556 L1067.88338,555.993272 C1067.38604,555.935507 1067,555.512836 1067,555 C1067,554.487164 1067.38604,554.064493 1067.88338,554.006728 L1068,554 L1070.14489,554.000163 C1070.57511,552.554335 1071.91443,551.5 1073.5,551.5 Z M1073.5,553.5 C1072.67157,553.5 1072,554.171573 1072,555 C1072,555.828427 1072.67157,556.5 1073.5,556.5 C1074.32843,556.5 1075,555.828427 1075,555 C1075,554.171573 1074.32843,553.5 1073.5,553.5 Z" transform="translate(-1067 -540)"/></svg>