<svg xmlns="http://www.w3.org/2000/svg" fill="#1E2327"  viewBox="0 0 21 21"><path d="M1016.77629,582.035085 C1016.79017,582.16555 1016.79118,582.297065 1016.7793,582.427728 L1016.58333,584.583333 C1016.34289,587.22817 1014.22557,589.311524 1011.5772,589.509165 L1010.58333,589.583333 C1006.86628,589.860725 1003.13372,589.860725 999.416667,589.583333 L998.422805,589.509165 C995.774426,589.311524 993.657106,587.22817 993.416667,584.583333 L993.220702,582.427728 C993.120699,581.327695 993.931384,580.354873 995.031417,580.25487 C995.16208,580.242992 995.293595,580.244 995.424061,580.257879 L999.443586,580.685488 C1000.27828,580.774285 1000.96871,581.374851 1001.1723,582.189194 L1001.4773,583.409202 C1001.58859,583.854369 1001.98858,584.166667 1002.44744,584.166667 L1007.55256,584.166667 C1008.01142,584.166667 1008.41141,583.854369 1008.5227,583.409202 L1008.8277,582.189194 C1009.03129,581.374851 1009.72172,580.774285 1010.55641,580.685488 L1014.57594,580.257879 C1015.67431,580.141031 1016.65944,580.936713 1016.77629,582.035085 Z M995.167221,581.74871 C994.922769,581.770933 994.735473,581.965564 994.714428,582.201689 L994.714428,582.291925 L994.910506,584.44753 C995.078558,586.296099 996.513192,587.76576 998.33752,587.993693 L998.534435,588.013324 L999.528296,588.087493 C1002.80676,588.332154 1006.09753,588.35662 1009.37846,588.160891 L1010.4717,588.087493 L1011.46557,588.013324 C1013.31661,587.875186 1014.80928,586.464505 1015.06668,584.644102 L1015.08949,584.44753 L1015.28546,582.291925 C1015.28843,582.259259 1015.28818,582.22638 1015.28471,582.193764 C1015.25874,581.949681 1015.06126,581.765389 1014.82484,581.747965 L1014.73462,581.749462 L1010.71509,582.177071 C1010.53623,582.196099 1010.38386,582.309125 1010.31193,582.469236 L1010.28292,582.552998 L1009.97791,583.773006 C1009.7136,584.830277 1008.79792,585.587762 1007.72346,585.660867 L1007.55256,585.666667 L1002.44744,585.666667 C1001.35763,585.666667 1000.40068,584.962046 1000.06916,583.937396 L1000.02209,583.773006 L999.717085,582.552998 C999.673459,582.378496 999.540413,582.243259 999.371881,582.194201 L999.284907,582.177071 L995.265382,581.749462 L995.21632,581.746671 L995.167221,581.74871 Z" transform="rotate(45 1200.38 -903.052)"/></svg>