<svg xmlns="http://www.w3.org/2000/svg" fill="#1E2327"  viewBox="0 0 16 20"><path fill-rule="evenodd" d="M1155,575 C1156.10457,575 1157,575.895431 1157,577 L1157,593 C1157,594.104569 1156.10457,595 1155,595 L1143,595 C1141.89543,595 1141,594.104569 1141,593 L1141,577 C1141,575.895431 1141.89543,575 1143,575 L1155,575 Z M1155,576.5 L1143,576.5 C1142.75454,576.5 1142.55039,576.676875 1142.50806,576.910124 L1142.5,577 L1142.5,593 C1142.5,593.24546 1142.67688,593.449608 1142.91012,593.491944 L1143,593.5 L1155,593.5 C1155.24546,593.5 1155.44961,593.323125 1155.49194,593.089876 L1155.5,593 L1155.5,577 C1155.5,576.75454 1155.32312,576.550392 1155.08988,576.508056 L1155,576.5 Z M1145,585 C1145.55228,585 1146,585.447715 1146,586 C1146,586.552285 1145.55228,587 1145,587 C1144.44772,587 1144,586.552285 1144,586 C1144,585.447715 1144.44772,585 1145,585 Z M1153,585.25 C1153.41421,585.25 1153.75,585.585786 1153.75,586 C1153.75,586.379696 1153.46785,586.693491 1153.10177,586.743153 L1153,586.75 L1148,586.75 C1147.58579,586.75 1147.25,586.414214 1147.25,586 C1147.25,585.620304 1147.53215,585.306509 1147.89823,585.256847 L1148,585.25 L1153,585.25 Z M1145,582 C1145.55228,582 1146,582.447715 1146,583 C1146,583.552285 1145.55228,584 1145,584 C1144.44772,584 1144,583.552285 1144,583 C1144,582.447715 1144.44772,582 1145,582 Z M1153,582.25 C1153.41421,582.25 1153.75,582.585786 1153.75,583 C1153.75,583.379696 1153.46785,583.693491 1153.10177,583.743153 L1153,583.75 L1148,583.75 C1147.58579,583.75 1147.25,583.414214 1147.25,583 C1147.25,582.620304 1147.53215,582.306509 1147.89823,582.256847 L1148,582.25 L1153,582.25 Z M1145,579 C1145.55228,579 1146,579.447715 1146,580 C1146,580.552285 1145.55228,581 1145,581 C1144.44772,581 1144,580.552285 1144,580 C1144,579.447715 1144.44772,579 1145,579 Z M1153,579.25 C1153.41421,579.25 1153.75,579.585786 1153.75,580 C1153.75,580.379696 1153.46785,580.693491 1153.10177,580.743153 L1153,580.75 L1148,580.75 C1147.58579,580.75 1147.25,580.414214 1147.25,580 C1147.25,579.620304 1147.53215,579.306509 1147.89823,579.256847 L1148,579.25 L1153,579.25 Z" transform="translate(-1141 -575)"/></svg>