<svg xmlns="http://www.w3.org/2000/svg" width="192" height="42" viewBox="0 0 192 42"><g fill="none" fill-rule="evenodd"><path fill="#004878" d="M37.0692,20.5225 C38.3502,19.3705 39.9842,18.7935 41.9702,18.7924985 C43.9562,18.7915 45.4612,19.2835 46.4852,20.2675 C47.5112,21.2485 48.0982,22.5945 48.2482,24.3035 L44.9792,24.6245 C44.9142,23.6425 44.5892,22.8835 44.0032,22.3495 C43.4162,21.8155 42.6162,21.5485 41.6002,21.5495 C40.5842,21.5495 39.7892,21.7945 39.2122,22.2855 C38.6492,22.7485 38.3292,23.4455 38.3472,24.1745 C38.3472,25.2015 38.6782,26.0335 39.3402,26.6745 C40.0022,27.3145 41.1352,28.0415 42.7382,28.8535 C44.1472,29.5795 45.1132,30.1075 45.6372,30.4405 C46.2012,30.8025 46.7312,31.2155 47.2222,31.6725 C48.2482,32.5915 48.7602,33.9265 48.7602,35.6775 C48.7602,37.4285 48.0982,38.9175 46.7742,40.1475 C45.4492,41.3765 43.6652,41.9905 41.4232,41.9895012 C39.1822,41.9885 37.0572,41.2945 35.0482,39.9075 L36.3602,37.5355 C38.3472,38.6685 40.2152,39.2355 41.9672,39.2345 C43.0142,39.2345 43.8692,38.9725 44.5312,38.4495 C45.1942,37.9265 45.5252,37.1685 45.5242,36.1745 C45.5242,35.1825 45.1872,34.3975 44.5152,33.8185 C43.7472,33.1835 42.8962,32.6555 41.9842,32.2495 C40.9692,31.7805 40.3442,31.4865 40.1102,31.3685 C39.8752,31.2515 39.4792,31.0385 38.9252,30.7275 C38.4972,30.5015 38.0882,30.2395 37.7062,29.9425 C37.4472,29.7305 37.1252,29.4245 36.7302,29.0295 C36.3832,28.7015 36.0962,28.3175 35.8812,27.8925 C35.4002,26.9375 35.1482,25.8845 35.1442,24.8155 C35.1452,23.1085 35.7872,21.6775 37.0692,20.5225"/><polygon fill="#004878" points="59.175 21.869 59.175 41.605 56.1 41.605 56.1 21.869 50.333 21.869 50.621 19.177 64.75 19.177 64.462 21.869"/><polygon fill="#004878" points="68.307 19.177 80.448 19.177 80.061 21.932 71.382 21.932 71.382 28.821 79.04 28.821 78.652 31.511 71.382 31.511 71.382 38.845 80.61 38.845 80.221 41.6 68.308 41.6"/><path fill="#004878" d="M88.1703 21.5492 88.1703 29.7182 90.6393 29.7182C92.0503 29.7182 93.1283 29.3502 93.8763 28.6122 94.6243 27.8752 94.9973 26.8512 94.996302 25.5372 94.996302 24.2242 94.6823 23.2322 94.0523 22.5592 93.4233 21.8862 92.3823 21.5512 90.9283 21.5512L88.1703 21.5492ZM85.0953 19.1772 92.3363 19.1772C94.6193 19.1772 96.1903 19.7972 97.0453 21.0362 97.8143 22.1682 98.1983 23.5462 98.1983 25.1682 98.1983 26.7912 97.7713 28.1742 96.9163 29.3182 96.0623 30.4602 94.9093 31.2772 93.4553 31.7692L99.5763 41.6102 95.9513 41.6102 90.4403 32.2882 88.1703 32.2882 88.1703 41.6102 85.0953 41.6102 85.0953 19.1772ZM110.6928 18.7924822C113.0638 18.7924822 114.7298 19.3375 115.6918 20.4265 116.6548 21.5155 117.1358 23.1395 117.1338 25.2965L113.8648 25.6175C113.8648 24.1005 113.5818 23.0435 113.0158 22.4445 112.4488 21.8465 111.6488 21.5485 110.6118 21.5495 109.5768 21.5495 108.7438 21.7035 108.1138 22.0125 107.5208 22.2925 107.0088 22.7165 106.6238 23.2475 106.2608 23.7595 105.9718 24.4325 105.7598 25.2655 105.4148 26.6315 105.2408 28.6445 105.2408 31.3045 105.2408 33.9645 105.7058 35.9495 106.6348 37.2605 107.5678 38.5755 109.0708 39.2335 111.1428 39.2335 112.2578 39.2425 113.3658 39.0475 114.4108 38.6565L114.4108 33.5625 110.0858 33.5625 110.4058 30.8725 117.2938 30.8725 117.2938 40.4845C115.2088 41.4665 112.9338 41.9805 110.6298 41.9895 107.3608 41.9895 105.0858 40.9975 103.8038 39.0115 102.7578 37.3715 102.1598 35.2245 102.0108 32.5725 101.9888 31.9115 101.9778 31.1315 101.9778 30.2335 101.9778 26.8175 102.7318 24.0545 104.2368 21.9465 105.7418 19.8385 107.8938 18.7875 110.6928 18.7924822M128.6989 21.9002 125.9109 33.0502 131.6469 33.0502 128.9279 21.9002 128.6989 21.9002ZM130.8129 19.0182 137.0279 41.6052 133.7919 41.6052 132.2849 35.6772 125.1739 35.6772 123.6049 41.6052 120.6269 41.6052 126.8729 19.4012 130.8129 19.0182ZM146.6093 21.9002 143.8213 33.0502 149.5543 33.0502 146.8353 21.9002 146.6093 21.9002ZM148.7223 19.0182 154.9373 41.6052 151.7003 41.6052 150.2023 35.6772 143.0813 35.6772 141.5103 41.6052 138.5323 41.6052 144.7803 19.4012 148.7223 19.0182ZM162.0826 21.5492 162.0826 29.7182 164.5426 29.7182C165.9526 29.7182 167.0326 29.3502 167.7796 28.6122 168.5276 27.8752 168.9006 26.8512 168.9006 25.5372 168.9006 24.2242 168.5866 23.2322 167.9576 22.5592 167.3286 21.8862 166.2866 21.5502 164.8346 21.5492L162.0826 21.5492ZM159.0076 19.1772 166.2466 19.1772C168.5316 19.1772 170.1026 19.7972 170.9576 21.0362 171.7256 22.1682 172.1096 23.5462 172.1106 25.1682 172.1116 26.7912 171.6846 28.1742 170.8286 29.3182 169.9746 30.4602 168.8216 31.2772 167.3676 31.7692L173.4886 41.6102 169.8636 41.6102 164.3526 32.2882 162.0776 32.2882 162.0776 41.6102 159.0076 41.6102 159.0076 19.1772ZM180.09 21.8691 180.09 38.9131 183.294 38.9131C185.664 38.9131 187.212 38.0271 187.938 36.2551 188.298 35.3931 188.546 34.4881 188.676 33.5631 188.815 32.4691 188.878 31.3661 188.868 30.2641 188.881 29.1411 188.79 28.0211 188.596 26.9151 188.429 26.0071 188.132 25.1271 187.714 24.3031 186.839 22.6811 185.28 21.8691 183.037 21.8691L180.09 21.8691ZM177.013 19.1771 183.549 19.1771C184.959 19.1771 186.193 19.4071 187.251 19.8661 188.308 20.3251 189.141 20.9071 189.749 21.6121 190.4 22.3921 190.904 23.2821 191.239 24.2401 191.835 25.9501 192.134 28.0641 192.136 30.5841 192.136 33.5751 191.517 36.1071 190.278 38.1781 189.64 39.2431 188.722 40.1131 187.623 40.6921 186.491 41.3011 185.167 41.6051 183.651 41.6051L177.018 41.6051 177.013 19.1771ZM4.4611 2.4775 2.9191 8.6345 6.0861 8.6345 4.5831 2.4775 4.4611 2.4775ZM5.6261.8835 9.0641 13.3585 7.2721 13.3585 6.4411 10.0845 2.5121 10.0845 1.6461 13.3585.0001 13.3585 3.4491 1.0965 5.6261.8835ZM13.9847 13.5704019C13.1817 13.5704019 12.5207 13.3224 12.0017 12.8274 11.4837 12.3314 11.2247 11.5654 11.2256971 10.5274L11.2256971 4.1424 12.8177 3.9824 12.8177 10.3324C12.8177 11.5474 13.3897 12.1544 14.5337 12.1544 15.2747 12.1604 15.9867 11.8604 16.4977 11.3244L16.4977 4.1424 18.0907 3.9824 18.0907 10.8094 18.2317 13.2704 16.9367 13.4484 16.7417 12.3684 16.6717 12.3684C15.9957 13.1704 15.0997 13.5714 13.9847 13.5704019M23.3905 4.0688 25.9205 4.0688 25.7075 5.4138 23.3905 5.4138 23.3905 9.7298C23.3905 10.6518 23.4695 11.2838 23.6295 11.6498 23.7875 12.0168 24.1465 12.1918 24.7175 12.1918 25.0405 12.1898 25.3585 12.1238 25.6555 11.9958L26.1145 13.0048C25.9735 13.1458 25.7135 13.2768 25.3385 13.3928 25.0065 13.5028 24.6615 13.5638 24.3125 13.5698 23.2765 13.5698 22.5975 13.2808 22.2765 12.7028 21.9555 12.1248 21.7965 11.1708 21.7985 9.8398L21.7985 5.4138 20.2755 5.4138 20.4585 4.1748 21.8045 4.0688 21.8925 2.1268 23.3905 1.6828 23.3905 4.0688ZM33.1302 5.9089C32.9532 5.7069 32.7312 5.5499 32.4822 5.4489 32.1712 5.3239 31.8372 5.2649 31.5012 5.2729 31.1622 5.2629 30.8252 5.3359 30.5202 5.4859 30.2762 5.6039 30.0642 5.7759 29.9002 5.9899 29.7372 6.2379 29.6282 6.5189 29.5822 6.8119 29.4722 7.3779 29.4172 7.9529 29.4222 8.5279 29.4222 9.1409 29.4332 9.5929 29.4582 9.8809 29.4842 10.1839 29.5402 10.4839 29.6262 10.7749 29.6962 11.0489 29.8272 11.3049 30.0072 11.5239 30.3612 11.9469 30.9042 12.1599 31.6352 12.1599 31.9722 12.1699 32.3052 12.0959 32.6082 11.9469 32.8512 11.8299 33.0642 11.6579 33.2272 11.4429 33.3922 11.1939 33.5002 10.9119 33.5452 10.6169 33.6552 10.0519 33.7082 9.4769 33.7052 8.9019 33.7052 8.2869 33.6932 7.8369 33.6702 7.5489 33.6442 7.2449 33.5872 6.9449 33.5022 6.6539 33.4322 6.3819 33.3052 6.1279 33.1302 5.9089M29.8932 4.2629C30.4952 3.9799 31.1562 3.8409 31.8212 3.8569 32.5572 3.8569 33.1762 3.9979 33.6792 4.2809 34.1652 4.5479 34.5532 4.9639 34.7852 5.4669 35.1982 6.3759 35.4042 7.4899 35.4042 8.8119 35.4042 10.0849 35.1092 11.1639 34.5192 12.0489 34.2022 12.5309 33.7582 12.9159 33.2362 13.1639 32.6332 13.4459 31.9732 13.5849 31.3082 13.5709 30.5702 13.5709 29.9512 13.4289 29.4502 13.1459 28.9602 12.8759 28.5712 12.4529 28.3442 11.9419 27.9312 11.0469 27.7262 9.9379 27.7262 8.6169 27.7262 7.3429 28.0202 6.2569 28.6102 5.3619 28.9322 4.8879 29.3752 4.5089 29.8932 4.2629M39.8091 4.8652C40.5061 4.1932 41.2991 3.8572 42.1891 3.8562 43.0791 3.8552 43.7871 4.1072 44.3131 4.6082 44.8371 5.1102 45.0991 5.9032 45.0991 6.9892L45.0991 13.3582 43.4911 13.3582 43.4911 7.0952C43.4911 5.8802 42.8821 5.2732 41.6671 5.2732 41.3041 5.2772 40.9471 5.3652 40.6231 5.5322 40.3171 5.6782 40.0421 5.8782 39.8091 6.1252L39.8091 13.3622 38.2351 13.3622 38.2351.1762 39.8091-.0008 39.8091 4.0342 39.7391 4.8472 39.8091 4.8652ZM51.1337 13.5704019C50.3307 13.5704019 49.6697 13.3224 49.1507 12.8274 48.6327 12.3314 48.3737 11.5654 48.3746971 10.5274L48.3746971 4.1424 49.9667 3.9824 49.9667 10.3324C49.9667 11.5474 50.5387 12.1544 51.6827 12.1544 52.4237 12.1604 53.1357 11.8604 53.6467 11.3244L53.6467 4.1424 55.2397 3.9824 55.2397 10.8094 55.3807 13.2704 54.0857 13.4484 53.8907 12.3684 53.8207 12.3684C53.1487 13.1704 52.2537 13.5714 51.1337 13.5704019M57.9809 6.52C57.9809 5.712 58.2679 5.065 58.8399 4.578 59.4119 4.091 60.1519 3.849 61.0589 3.85197245 61.9679 3.85197245 62.6759 4.072 63.1819 4.514 63.6959 4.969 64.0079 5.609 64.0499 6.293L62.4039 6.629C62.4009 6.245 62.2489 5.877 61.9789 5.604 61.7059 5.351 61.3429 5.217 60.9709 5.231 60.5579 5.231 60.2389 5.33 60.0149 5.523 59.8009 5.699 59.6769 5.962 59.6799 6.24 59.6699 6.481 59.7179 6.719 59.8219 6.935 59.9339 7.131 60.0919 7.295 60.2819 7.413 60.6529 7.661 61.0499 7.867 61.4669 8.027 61.9729 8.234 62.3449 8.4 62.5819 8.523 62.8649 8.676 63.1369 8.849 63.3949 9.041 63.9719 9.453 64.2609 10.046 64.2619 10.819 64.2689 11.577 63.9299 12.297 63.3419 12.774 62.7279 13.305 61.9199 13.57 60.9179 13.57 59.9159 13.57 58.9189 13.252 57.9279 12.615L58.5469 11.449C59.6559 11.921 60.5129 12.156 61.1169 12.155 62.0849 12.155 62.5689 11.778 62.5689 11.024 62.5689 10.68 62.3999 10.359 62.1179 10.164 61.7419 9.893 61.3339 9.667 60.9049 9.492 60.3969 9.274 60.0229 9.102 59.7819 8.974 59.4879 8.817 59.2069 8.637 58.9419 8.435 58.3209 7.998 57.9599 7.279 57.9809 6.52M71.3036 5.8467C71.1146 5.4647 70.6836 5.2747 70.0086 5.2727 69.3306 5.2727 68.8436 5.4987 68.5676 5.9527 68.2916 6.4067 68.1066 7.0347 68.0366 7.8377L71.5926 7.8377C71.5886 6.8947 71.4916 6.2307 71.3036 5.8467M70.2416 3.8557C71.2556 3.8557 72.0036 4.1637 72.4886 4.7767 72.8896 5.2727 73.1376 6.1037 73.2316 7.2727 73.2666 7.7317 73.2846 8.3027 73.2846 8.9877L72.5596 9.0937 67.9796 9.0937C67.9796 10.5807 68.3746 11.5187 69.1646 11.9077 69.4936 12.0727 69.9476 12.1557 70.5266 12.1557 71.1056 12.1557 71.7716 11.9667 72.5266 11.5897L73.0196 12.6887C72.0406 13.2797 71.0556 13.5737 70.0646 13.5727025 67.5406 13.5727025 66.2786 11.9817 66.2786 8.7967 66.2786 7.2867 66.6116 6.0857 67.2776 5.1957 67.9446 4.3047 68.9326 3.8587 70.2416 3.8557M77.8853 4.0688 80.4103 4.0688 80.2023 5.4138 77.8853 5.4138 77.8853 9.7298C77.8853 10.6518 77.9643 11.2838 78.1243 11.6498 78.2823 12.0168 78.6413 12.1918 79.2123 12.1918 79.5353 12.1908 79.8543 12.1238 80.1513 11.9958L80.6113 13.0048C80.4693 13.1458 80.2093 13.2768 79.8343 13.3928 79.5023 13.5028 79.1573 13.5638 78.8073 13.5698 77.7713 13.5698 77.0933 13.2808 76.7733 12.7028 76.4523 12.1248 76.2933 11.1708 76.2933 9.8398L76.2933 5.4138 74.7703 5.4138 74.9473 4.1748 76.2933 4.0688 76.3803 2.1268 77.8853 1.6828 77.8853 4.0688Z"/><polygon fill="#004878" points="0 19.402 6.12 41.606 10.093 41.606 16.404 19.402 13.458 19.018 8.876 36.062 8.299 38.626 8.17 38.626 7.625 36.062 3.01 19.013"/><polygon fill="#004878" points="20.056 19.177 20.056 41.6 31.971 41.6 32.359 38.845 23.131 38.845 23.131 31.512 30.401 31.512 30.788 28.821 23.131 28.821 23.131 21.933 31.811 21.933 32.2 19.177"/></g></svg>